<?xml version="1.0" encoding="utf-8"?>
<!-- Generator: Adobe Illustrator 16.0.3, SVG Export Plug-In . SVG Version: 6.00 Build 0)  -->
<!DOCTYPE svg PUBLIC "-//W3C//DTD SVG 1.1//EN" "http://www.w3.org/Graphics/SVG/1.1/DTD/svg11.dtd">
<svg version="1.1" id="調整済" xmlns="http://www.w3.org/2000/svg" xmlns:xlink="http://www.w3.org/1999/xlink" x="0px" y="0px"
	 width="595.28px" height="841.89px" viewBox="0 0 595.28 841.89" enable-background="new 0 0 595.28 841.89" xml:space="preserve">
<g>
	<rect id="四角" x="154.491" y="279.213" fill="#FFFDDF" width="286.298" height="283.464"/>
	<path id="角丸" display="none" fill="#FFFDDF" d="M440.789,534.331c0,15.655-12.689,28.346-28.346,28.346H182.837
		c-15.655,0-28.346-12.69-28.346-28.346V307.56c0-15.656,12.69-28.347,28.346-28.347h229.606c15.656,0,28.346,12.69,28.346,28.347
		V534.331z"/>
	<g id="_x31_set">
		<g id="glocal-mark_x5F_110_xFF05_">
			<path fill="#004C88" d="M319.185,392.347l-7.058,7.058c4.564,4.238,10.604,6.906,17.262,7.15v-9.981
				C325.481,396.345,321.932,394.788,319.185,392.347"/>
			<path fill="#BB1A2A" d="M347.238,378.725h9.98c-0.244-6.659-2.912-12.698-7.15-17.262l-7.058,7.058
				C345.451,371.269,347.009,374.818,347.238,378.725"/>
			<path fill="#003067" d="M313.542,380.727h-9.98c0.243,6.66,2.912,12.698,7.149,17.262l7.058-7.058
				C315.328,388.185,313.77,384.634,313.542,380.727"/>
			<path fill="#188F3B" d="M341.594,367.104l7.06-7.057c-4.565-4.238-10.604-6.906-17.263-7.15v9.98
				C335.299,363.106,338.849,364.664,341.594,367.104"/>
			<path fill="#CFA214" d="M329.389,362.878v-9.98c-6.658,0.243-12.698,2.912-17.262,7.15l7.059,7.057
				C321.932,364.664,325.481,363.106,329.389,362.878"/>
			<path fill="#D51721" d="M317.769,368.521l-7.058-7.059c-4.237,4.563-6.906,10.604-7.149,17.262h9.98
				C313.771,374.818,315.327,371.269,317.769,368.521"/>
			<path fill="#28A838" d="M331.391,396.573v9.981c6.659-0.244,12.697-2.913,17.262-7.15l-7.059-7.057
				C338.849,394.788,335.299,396.345,331.391,396.573"/>
			<path fill="#0075BA" d="M343.01,390.931l7.058,7.058c4.239-4.563,6.907-10.603,7.151-17.261h-9.98
				C347.008,384.634,345.452,388.183,343.01,390.931"/>
			<path fill="#D39200" d="M386.922,392.347l-7.058,7.058c4.563,4.238,10.603,6.906,17.262,7.15v-9.981
				C393.219,396.345,389.669,394.788,386.922,392.347"/>
			<path fill="#ED6A02" d="M414.975,378.725h9.98c-0.244-6.659-2.913-12.698-7.149-17.262l-7.058,7.058
				C413.188,371.269,414.746,374.818,414.975,378.725"/>
			<path fill="#427935" d="M381.277,380.727h-9.979c0.244,6.66,2.914,12.698,7.15,17.262l7.058-7.058
				C383.065,388.185,381.508,384.634,381.277,380.727"/>
			<path fill="#970B31" d="M409.332,367.104l7.058-7.057c-4.563-4.238-10.603-6.906-17.263-7.15v9.98
				C403.035,363.106,406.584,364.664,409.332,367.104"/>
			<path fill="#FABD00" d="M397.126,362.878v-9.98c-6.659,0.243-12.698,2.912-17.262,7.15l7.058,7.057
				C389.669,364.664,393.219,363.106,397.126,362.878"/>
			<path fill="#00A6D9" d="M385.506,368.521l-7.058-7.059c-4.236,4.563-6.906,10.604-7.15,17.262h9.979
				C381.508,374.818,383.065,371.269,385.506,368.521"/>
			<path fill="#F5A200" d="M399.127,396.573v9.981c6.66-0.244,12.699-2.913,17.263-7.15l-7.058-7.057
				C406.584,394.788,403.035,396.345,399.127,396.573"/>
			<path fill="#DC007A" d="M410.748,390.931l7.058,7.058c4.237-4.563,6.905-10.603,7.149-17.261h-9.98
				C414.746,384.634,413.188,388.183,410.748,390.931"/>
			<path fill="#E83819" d="M369.815,372.364l3.784-9.234c-6.255-2.3-12.854-2.12-18.684,0.07l3.854,9.207
				C362.239,371.19,366.114,371.095,369.815,372.364"/>
		</g>
		<g id="happy-logo_x5F_100_xFF05_">
			<path fill="#EE780C" d="M262.314,494.992c-10.39,0-20.811-1.47-30.977-4.458c-10.631-3.124-22.954-10.187-32.163-18.432
				c-15.587-13.959-23.994-34.858-23.069-57.34c0.93-22.523,11.054-42.701,27.777-55.36c20.046-15.176,49.292-16.697,71.122-3.698
				c13.012,7.745,22.832,21.688,26.272,37.291c3.248,14.75,0.628,29.317-7.378,41.019c-7.19,10.507-18.988,17.422-31.56,18.497
				c-11.771,1.002-22.792-3.106-31.02-11.58c-6.018-6.195-9.41-15.592-9.079-25.138c0.302-8.708,3.703-16.403,9.576-21.668
				c6.654-5.963,16.884-5.406,22.848,1.248c5.598,6.246,5.449,15.64-0.092,21.702c0.009,0.532,0.126,1.208,0.298,1.641
				c0.916,0.846,2.365,1.754,4.712,1.553c2.911-0.25,5.898-2.027,7.611-4.53c3.921-5.729,3.237-12.346,2.48-15.779
				c-1.528-6.936-5.828-13.239-11.224-16.451c-10.294-6.129-25.686-5.385-35.037,1.694c-8.856,6.705-14.455,18.252-14.976,30.893
				c-0.519,12.601,4.089,24.524,12.324,31.9c5.582,4.999,13.681,9.724,19.695,11.491c22.345,6.564,46.516,2.728,66.315-10.531
				c14.495-9.704,29.335-23.396,40.709-37.567c5.593-6.968,15.779-8.083,22.747-2.488c6.967,5.595,8.082,15.777,2.486,22.745
				c-13.348,16.631-30.823,32.741-47.939,44.201C305.926,488.466,284.194,494.991,262.314,494.992z"/>
			<path fill="#FBCD6C" d="M330.752,429.543c-3.993,3.813-8.138,7.45-12.314,10.813l20.288,25.21
				c4.885-3.933,9.721-8.176,14.372-12.615L330.752,429.543z M292.376,456.617l12.247,29.952c6.384-2.609,12.56-5.821,18.356-9.545
				L305.486,449.8C301.346,452.459,296.934,454.753,292.376,456.617z"/>
			<path d="M370.229,408.899c-6.968-5.595-17.154-4.479-22.747,2.488c-1.405,1.752-2.864,3.496-4.371,5.227l25.11,20.419
				c1.541-1.787,3.046-3.584,4.494-5.389C378.312,424.677,377.196,414.494,370.229,408.899z"/>
		</g>
	</g>
</g>
</svg>
